<svg width="16" height="16" viewBox="0 0 16 16" fill="none" xmlns="http://www.w3.org/2000/svg">
<path fill-rule="evenodd" clip-rule="evenodd" d="M9.88468 0.00634381C9.70621 -0.0192386 9.52695 0.0335251 9.38434 0.147047C9.23774 0.262168 9.14612 0.428454 9.1262 0.614726C9.08397 0.991267 9.35566 1.33183 9.73171 1.3742C12.325 1.66361 14.3407 3.68382 14.6323 6.28523C14.6714 6.63379 14.9638 6.89681 15.3127 6.89681C15.339 6.89681 15.3645 6.89521 15.3908 6.89201C15.5733 6.87203 15.7358 6.78169 15.8505 6.63779C15.9645 6.49389 16.0162 6.31481 15.9955 6.13174C15.6322 2.88597 13.1202 0.366896 9.88468 0.00634381ZM9.93451 2.79195C9.55368 2.7216 9.20392 2.96464 9.13142 3.33638C9.05892 3.70812 9.30271 4.07108 9.67319 4.14383C10.7886 4.36128 11.6499 5.22468 11.8682 6.34391V6.34471C11.9303 6.66689 12.2139 6.90113 12.5406 6.90113C12.5844 6.90113 12.6282 6.89713 12.6728 6.88914C13.0433 6.81479 13.2871 6.45264 13.2146 6.0801C12.8888 4.40844 11.6021 3.11733 9.93451 2.79195ZM11.2001 10.4724C11.5612 10.2642 11.9692 10.029 12.4837 10.1384C12.9498 10.2367 14.5385 11.5263 14.9735 11.9731C15.2587 12.2657 15.4173 12.5679 15.442 12.8701C15.485 14.0557 13.874 15.4092 13.5808 15.5779C13.1912 15.8585 12.7379 16 12.2288 16C11.7085 16 11.1285 15.8521 10.4959 15.5571C7.06365 14.1245 1.82042 8.9848 0.434129 5.57914C-0.141104 4.31121 -0.145088 3.26553 0.424568 2.47967C0.651634 2.11112 1.94631 0.570579 3.10554 0.619345C3.41387 0.645727 3.71343 0.804018 4.00742 1.09182C4.45199 1.52752 5.70922 3.12083 5.80642 3.58851C5.91398 4.10815 5.67815 4.52147 5.46861 4.88442C5.42392 4.96244 5.3637 5.05503 5.29773 5.15647C5.04736 5.54145 4.71411 6.05386 4.83203 6.38099C5.67735 8.45636 7.63012 10.2671 9.70637 11.1177C10.0275 11.2344 10.5396 10.8988 10.9233 10.6473C11.0233 10.5818 11.1146 10.522 11.1915 10.4774L11.2001 10.4724Z" fill="#1B1D21"/>
</svg>
