<svg width="30" height="30" viewBox="0 0 30 30" fill="none" xmlns="http://www.w3.org/2000/svg">
<path d="M15 29.9803C23.2843 29.9803 30 23.269 30 14.9902C30 6.71132 23.2843 0 15 0C6.71573 0 0 6.71132 0 14.9902C0 23.269 6.71573 29.9803 15 29.9803Z" fill="#E04F5F"/>
<path d="M9.08283 11.391L18.5989 20.907C19.2395 21.5476 20.2781 21.5476 20.9187 20.907C21.5593 20.2664 21.5593 19.2278 20.9187 18.5871L11.4027 9.07113C10.7621 8.43053 9.72344 8.43052 9.08283 9.07113C8.44223 9.71174 8.44223 10.7504 9.08283 11.391Z" fill="white"/>
<path d="M11.4032 20.9098L20.9192 11.3938C21.5598 10.7532 21.5598 9.71457 20.9192 9.07397C20.2786 8.43336 19.2399 8.43336 18.5993 9.07397L9.08332 18.59C8.44272 19.2306 8.44272 20.2692 9.08332 20.9098C9.72393 21.5504 10.7626 21.5504 11.4032 20.9098Z" fill="white"/>
</svg>
