<svg width="37" height="25" viewBox="0 0 37 25" fill="none" xmlns="http://www.w3.org/2000/svg">
<rect x="0.69943" y="0.700496" width="33.9955" height="23.1679" rx="3.3" transform="matrix(1 0.000708361 -0.000814288 1 0.824545 -0.000495157)" fill="url(#paint0_linear_3523_13391)" stroke="#F9FFF6" stroke-width="1.4"/>
<path fill-rule="evenodd" clip-rule="evenodd" d="M12.5333 15.9338C12.5544 18.9849 15.7018 22.6245 17.8707 23.8017C17.9126 23.8216 17.9494 23.8494 17.9787 23.8831C18.008 23.9168 18.0292 23.9558 18.0409 23.9975C18.0527 24.0392 18.0546 24.0827 18.0467 24.1251C18.0388 24.1675 18.0212 24.208 17.995 24.2438C17.9632 24.2921 17.9183 24.3321 17.8645 24.36C17.8108 24.388 17.7501 24.4028 17.6883 24.4032C17.6252 24.4033 17.5633 24.3873 17.5097 24.357C15.196 23.1122 12.0317 19.4757 11.8322 16.2218L1.1647 16.2143C1.0764 16.2064 0.994492 16.1688 0.934923 16.1089C0.875355 16.049 0.842394 15.971 0.84246 15.8902C0.842526 15.8094 0.875614 15.7315 0.935279 15.6716C0.994945 15.6118 1.07692 15.5744 1.16523 15.5666L11.9001 15.5742C12.5742 13.4279 12.576 11.1527 11.9055 9.00542L1.17058 8.99782C1.07675 8.99775 0.98679 8.96373 0.920491 8.90324C0.854193 8.84275 0.816986 8.76075 0.817055 8.67527C0.817125 8.58979 0.854465 8.50784 0.920862 8.44744C0.987259 8.38705 1.07727 8.35315 1.1711 8.35322L11.8386 8.36078C12.0434 5.09495 15.2271 1.47517 17.5294 0.233639C17.6121 0.190144 17.7103 0.178358 17.8026 0.200873C17.8948 0.223389 17.9735 0.278362 18.0212 0.353699C18.069 0.429036 18.0819 0.518566 18.0572 0.602593C18.0325 0.68662 17.9721 0.758261 17.8894 0.801756C15.7186 1.9605 12.5653 5.59872 12.5392 8.65288C13.309 11.0295 13.3069 13.5583 12.5333 15.9338ZM23.4924 5.41001C22.2846 3.20831 20.3857 1.47882 19.1362 0.802642C19.0535 0.759029 18.9933 0.687303 18.9687 0.603241C18.9442 0.519179 18.9573 0.429667 19.0051 0.354398C19.053 0.279129 19.1317 0.224267 19.224 0.201883C19.3163 0.179498 19.4145 0.191423 19.4972 0.235035C21.134 1.11101 23.036 3.11982 24.1261 5.10351C24.1524 5.1415 24.1691 5.18428 24.1753 5.22882C24.1814 5.27336 24.1767 5.31858 24.1616 5.3613C24.1465 5.40402 24.1212 5.4432 24.0877 5.47607C24.0541 5.50894 24.0131 5.5347 23.9674 5.55155C23.9187 5.57544 23.8643 5.58806 23.809 5.58827C23.7433 5.58828 23.6788 5.57161 23.6229 5.54013C23.567 5.50864 23.5218 5.46358 23.4924 5.41001ZM35.8531 15.5912L25.098 15.5835C24.4275 13.4363 24.4293 11.1611 25.1034 9.01477L35.8585 9.02239C35.9523 9.02246 36.0423 8.98856 36.1087 8.92817C36.1751 8.86777 36.2125 8.78582 36.2125 8.70034C36.2126 8.61486 36.1754 8.53286 36.1091 8.47237C36.0428 8.41188 35.9528 8.37786 35.859 8.37779L24.831 8.36998C24.7543 8.37072 24.6799 8.39415 24.6191 8.43674C24.5583 8.47933 24.5144 8.53876 24.4939 8.60609C23.7085 10.9989 23.7065 13.5484 24.4879 15.9422C24.4618 18.9933 21.3085 22.6285 19.1376 23.8026C19.0946 23.8213 19.0565 23.8482 19.0257 23.8814C18.995 23.9146 18.9723 23.9534 18.9592 23.9951C18.9461 24.0369 18.9429 24.0807 18.9498 24.1237C18.9567 24.1667 18.9735 24.2079 18.9991 24.2445C19.0309 24.2928 19.0757 24.3329 19.1294 24.3609C19.1831 24.3889 19.2438 24.4039 19.3056 24.4043C19.3687 24.4046 19.4306 24.3886 19.4842 24.3584C21.7865 23.1322 24.9702 19.4848 25.175 16.2313L35.8526 16.2388C35.9409 16.2311 36.0229 16.1936 36.0825 16.1338C36.1422 16.074 36.1753 15.9961 36.1754 15.9152C36.1754 15.8344 36.1425 15.7564 36.0829 15.6965C36.0233 15.6366 35.9414 15.5991 35.8531 15.5912ZM18.1599 1.99208C18.2641 1.92874 18.3866 1.89499 18.5119 1.89508C18.6799 1.89519 18.841 1.95611 18.9597 2.06441C19.0784 2.17272 19.145 2.31955 19.1449 2.47259C19.1448 2.58673 19.1075 2.69827 19.0378 2.79312C18.9682 2.88797 18.8692 2.96187 18.7534 3.00546C18.6376 3.04906 18.5102 3.06039 18.3874 3.03804C18.2645 3.01569 18.1517 2.96065 18.0632 2.87988C17.9746 2.79911 17.9144 2.69624 17.8901 2.58429C17.8657 2.47233 17.8783 2.35631 17.9264 2.2509C17.9744 2.14548 18.0557 2.05542 18.1599 1.99208Z" fill="#666666"/>
<defs>
<linearGradient id="paint0_linear_3523_13391" x1="-3.371" y1="-4.94507e-07" x2="35.8831" y2="27.9118" gradientUnits="userSpaceOnUse">
<stop stop-color="#FBC926"/>
<stop offset="0.212761" stop-color="#FFFBCC"/>
<stop offset="0.548384" stop-color="#C3922E" stop-opacity="0.8"/>
<stop offset="0.914316" stop-color="#EED688"/>
<stop offset="1" stop-color="#FFFBCC"/>
</linearGradient>
</defs>
</svg>
