<svg width="112" height="81" viewBox="0 0 112 81" fill="none" xmlns="http://www.w3.org/2000/svg">
<circle cx="40.5" cy="40.5" r="40.5" fill="#FFF4D0" fill-opacity="0.5"/>
<path d="M105.182 64.5303H21.8177C18.8388 64.5303 16.4238 62.1155 16.4238 59.1364V28.8177C16.4238 25.8388 18.8386 23.4238 21.8177 23.4238H105.182C108.161 23.4238 110.576 25.8388 110.576 28.8177V59.1364C110.576 62.1155 108.161 64.5303 105.182 64.5303Z" fill="#E0E0E0"/>
<path d="M105.182 59.4046H21.8177C18.8388 59.4046 16.4238 56.9898 16.4238 54.0107V59.1369C16.4238 62.1158 18.8386 64.5307 21.8177 64.5307H105.182C108.161 64.5307 110.576 62.116 110.576 59.1369V54.0107C110.576 56.9898 108.161 59.4046 105.182 59.4046Z" fill="#C4C4C4"/>
<path d="M100.349 53.8281H26.6511V64.53H100.349V53.8281Z" fill="#66BAEA"/>
<path d="M100.349 59.4043H26.6511V64.5305H100.349V59.4043Z" fill="#3AAAE4"/>
<path d="M105.182 22H38.0635C37.2771 22 36.6396 22.6374 36.6396 23.4239C36.6396 24.2105 37.2771 24.8479 38.0635 24.8479H105.182C107.371 24.8479 109.152 26.6287 109.152 28.8178V59.1363C109.152 61.3254 107.371 63.1063 105.182 63.1063H101.773V53.8285C101.773 53.0419 101.135 52.4046 100.349 52.4046H26.6512C25.8648 52.4046 25.2273 53.0419 25.2273 53.8285V63.1063H21.8178C19.6287 63.1063 17.8479 61.3254 17.8479 59.1363V28.8178C17.8479 26.6287 19.6287 24.8479 21.8178 24.8479H32.3678C33.1542 24.8479 33.7917 24.2105 33.7917 23.4239C33.7917 22.6374 33.1542 22 32.3678 22H21.8178C18.0584 22 15 25.0584 15 28.8178V59.1363C15 62.8957 18.0584 65.9541 21.8178 65.9541H36.6402C37.4266 65.9541 38.0641 65.3168 38.0641 64.5302C38.0641 63.7438 37.4266 63.1063 36.6402 63.1063H28.0751V60.6032H84.6643C85.4507 60.6032 86.0882 59.9658 86.0882 59.1792C86.0882 58.3927 85.4507 57.7553 84.6643 57.7553H28.0751V55.2522H98.9249V57.7553H90.36C89.5736 57.7553 88.9361 58.3927 88.9361 59.1792C88.9361 59.9658 89.5736 60.6032 90.36 60.6032H98.9249V63.1063H42.3357C41.5493 63.1063 40.9118 63.7438 40.9118 64.5302C40.9118 65.3168 41.5493 65.9541 42.3357 65.9541H105.182C108.942 65.9541 112 62.8957 112 59.1363V28.8178C112 25.0586 108.942 22 105.182 22Z" fill="black"/>
<path d="M100.349 33.5774C101.135 33.5774 101.773 32.94 101.773 32.1534C101.773 31.3668 101.135 30.7295 100.349 30.7295H96.1376C95.3512 30.7295 94.7136 31.3668 94.7136 32.1534C94.7136 32.94 95.3512 33.5774 96.1376 33.5774H100.349Z" fill="black"/>
<path d="M89.6405 33.5774C90.4269 33.5774 91.0644 32.94 91.0644 32.1534C91.0644 31.3668 90.4269 30.7295 89.6405 30.7295H62.6891C61.9027 30.7295 61.2651 31.3668 61.2651 32.1534C61.2651 32.94 61.9027 33.5774 62.6891 33.5774H89.6405Z" fill="black"/>
<path d="M41.7856 69.7637C40.9992 69.7637 40.3616 70.401 40.3616 71.1876C40.3616 71.2299 40.3159 75.4512 36.3657 78.2588C35.7247 78.7143 35.5744 79.6034 36.03 80.2444C36.3078 80.6353 36.7464 80.8436 37.192 80.8436C37.4773 80.8436 37.7655 80.7579 38.0158 80.5801C43.1506 76.9302 43.2097 71.4202 43.2097 71.1874C43.2095 70.401 42.572 69.7637 41.7856 69.7637Z" fill="black"/>
<path d="M51.9811 69.7637C51.1947 69.7637 50.5571 70.401 50.5571 71.1876V79.4195C50.5571 80.206 51.1947 80.8434 51.9811 80.8434C52.7675 80.8434 53.405 80.206 53.405 79.4195V71.1876C53.405 70.401 52.7675 69.7637 51.9811 69.7637Z" fill="black"/>
<path d="M63.9005 69.7637C63.1141 69.7637 62.4766 70.401 62.4766 71.1876V79.4195C62.4766 80.206 63.1141 80.8434 63.9005 80.8434C64.6869 80.8434 65.3244 80.206 65.3244 79.4195V71.1876C65.3244 70.401 64.6869 69.7637 63.9005 69.7637Z" fill="black"/>
<path d="M90.6346 78.2589C86.7376 75.489 86.6407 71.3706 86.6386 71.1811C86.6352 70.3976 85.999 69.7637 85.2147 69.7637C84.4283 69.7637 83.7908 70.401 83.7908 71.1876C83.7908 71.4204 83.8498 76.9304 88.9847 80.5802C89.2349 80.7581 89.5231 80.8438 89.8085 80.8438C90.2539 80.8436 90.6927 80.6351 90.9704 80.2446C91.4259 79.6034 91.2755 78.7143 90.6346 78.2589Z" fill="black"/>
<path d="M75.0189 69.7637C74.2325 69.7637 73.595 70.401 73.595 71.1876V79.4195C73.595 80.206 74.2325 80.8434 75.0189 80.8434C75.8053 80.8434 76.4428 80.206 76.4428 79.4195V71.1876C76.4428 70.401 75.8053 69.7637 75.0189 69.7637Z" fill="black"/>
</svg>
