<svg width="105" height="89" viewBox="0 0 105 89" fill="none" xmlns="http://www.w3.org/2000/svg">
<circle cx="40.5" cy="48.5" r="40.5" fill="#FFF4D0" fill-opacity="0.5"/>
<path d="M95.5691 50.4953H92.5087V39.784C92.5087 36.1316 91.0578 32.6288 88.4751 30.0461C85.8925 27.4634 82.3896 26.0125 78.7372 26.0125C75.0847 26.0125 71.5819 27.4634 68.9992 30.0461C66.4165 32.6288 64.9656 36.1316 64.9656 39.784V48.9651H61.9053V39.784C61.9053 35.3199 63.6786 31.0387 66.8352 27.8821C69.9918 24.7255 74.2731 22.9521 78.7372 22.9521C83.2013 22.9521 87.4825 24.7255 90.6391 27.8821C93.7957 31.0387 95.5691 35.3199 95.5691 39.784V50.4953Z" fill="#428DC5"/>
<path d="M55.7844 47.4355H98.6292V53.5562H55.7844V47.4355Z" fill="#6CBAE5"/>
<path d="M94.0388 82.6289H60.375L57.3147 53.5557H97.0992L94.0388 82.6289Z" fill="#4799CF"/>
<path d="M98.6292 47.0527V58.0604C98.6292 59.7072 97.363 61.1265 95.7162 61.203C95.3025 61.2226 94.889 61.1582 94.501 61.0135C94.1129 60.8688 93.7582 60.6468 93.4583 60.3611C93.1585 60.0754 92.9197 59.7318 92.7564 59.3511C92.5932 58.9705 92.5089 58.5606 92.5086 58.1465C92.5086 58.9581 92.1861 59.7365 91.6122 60.3104C91.0383 60.8844 90.2599 61.2068 89.4482 61.2068C88.6366 61.2068 87.8581 60.8844 87.2842 60.3104C86.7103 59.7365 86.3879 58.9581 86.3879 58.1465C86.3879 58.9581 86.0654 59.7365 85.4915 60.3104C84.9176 60.8844 84.1392 61.2068 83.3275 61.2068C82.5159 61.2068 81.7375 60.8844 81.1635 60.3104C80.5896 59.7365 80.2672 58.9581 80.2672 58.1465C80.2679 58.6837 80.1267 59.2115 79.8579 59.6766C79.5881 60.1414 79.2018 60.5278 78.737 60.7975C78.2865 61.0595 77.7758 61.2006 77.2546 61.2068C75.5447 61.2317 74.1465 59.7723 74.1465 58.0623V47.0527C74.1465 45.9367 74.5898 44.8664 75.379 44.0772C76.1681 43.2881 77.2384 42.8447 78.3545 42.8447H94.4213C95.5373 42.8447 96.6076 43.2881 97.3968 44.0772C98.1859 44.8664 98.6292 45.9367 98.6292 47.0527Z" fill="#FD9226"/>
<path d="M60.375 82.6299H94.0388V88.7506H60.375V82.6299Z" fill="#6CBAE5"/>
<path d="M86.3879 70.3877H89.4483V78.0386H86.3879V70.3877Z" fill="#6CBAE5"/>
<path d="M86.3879 64.2676H89.4483V67.3279H86.3879V64.2676Z" fill="#6CBAE5"/>
<path d="M80.2672 58.1461C80.268 58.6833 80.1268 59.2112 79.8579 59.6763C79.5882 60.1411 79.2019 60.5274 78.7371 60.7971V52.0254H80.2672V58.1461Z" fill="#E08122"/>
<path d="M86.3878 58.1461C86.3881 58.6834 86.2468 59.2113 85.9782 59.6767C85.7095 60.1421 85.3231 60.5285 84.8577 60.7971V52.0254H86.3878V58.1461Z" fill="#E08122"/>
<path d="M92.5087 58.1461C92.5089 58.6834 92.3676 59.2113 92.099 59.6767C91.8304 60.1421 91.4439 60.5285 90.9785 60.7971V52.0254H92.5087V58.1461Z" fill="#E08122"/>
<path d="M71.0861 88.7502H22.1206L25.181 76.5088H68.0258L71.0861 88.7502Z" fill="#FBB540"/>
<path d="M26.7113 70.3877H66.4958C66.9016 70.3877 67.2908 70.5489 67.5778 70.8359C67.8648 71.1228 68.026 71.512 68.026 71.9179V76.5084H25.1812V71.9179C25.1812 71.512 25.3424 71.1228 25.6293 70.8359C25.9163 70.5489 26.3055 70.3877 26.7113 70.3877Z" fill="#C17450"/>
<path d="M43.5431 76.5088H49.6638L51.194 88.7502H42.0129L43.5431 76.5088Z" fill="#EA9D2D"/>
<path d="M28.2415 88.7502L31.3018 76.5088H37.4225L34.3621 88.7502H28.2415Z" fill="#EA9D2D"/>
<path d="M46.6036 0C47.4152 0 48.1936 0.322428 48.7675 0.896354C49.3415 1.47028 49.6639 2.24869 49.6639 3.06034V70.3879H43.5432V3.06034C43.5432 2.24869 43.8656 1.47028 44.4396 0.896354C45.0135 0.322428 45.7919 0 46.6036 0Z" fill="#8F563B"/>
<path d="M31.3018 35.1943C30.8267 36.6196 30.0262 37.9147 28.9639 38.9771C27.9015 40.0394 26.6064 40.8399 25.1812 41.315C26.6064 41.7902 27.9015 42.5906 28.9639 43.653C30.0262 44.7153 30.8267 46.0104 31.3018 47.4357C31.777 46.0104 32.5774 44.7153 33.6398 43.653C34.7022 42.5906 35.9972 41.7902 37.4225 41.315C35.9972 40.8399 34.7022 40.0394 33.6398 38.9771C32.5774 37.9147 31.777 36.6196 31.3018 35.1943Z" fill="#FBB540"/>
<path d="M98.6292 16.832C98.1541 18.2573 97.3536 19.5524 96.2913 20.6148C95.2289 21.6771 93.9338 22.4776 92.5085 22.9527C93.9338 23.4279 95.2289 24.2283 96.2913 25.2907C97.3536 26.353 98.1541 27.6481 98.6292 29.0734C99.1044 27.6481 99.9048 26.353 100.967 25.2907C102.03 24.2283 103.325 23.4279 104.75 22.9527C103.325 22.4776 102.03 21.6771 100.967 20.6148C99.9048 19.5524 99.1044 18.2573 98.6292 16.832Z" fill="#FBB540"/>
<path d="M22.1207 53.5557C21.6455 54.9809 20.8451 56.276 19.7827 57.3384C18.7204 58.4008 17.4253 59.2012 16 59.6764C17.4253 60.1515 18.7204 60.9519 19.7827 62.0143C20.8451 63.0767 21.6455 64.3718 22.1207 65.797C22.5958 64.3718 23.3963 63.0767 24.4586 62.0143C25.521 60.9519 26.8161 60.1515 28.2414 59.6764C26.8161 59.2012 25.521 58.4008 24.4586 57.3384C23.3963 56.276 22.5958 54.9809 22.1207 53.5557Z" fill="#FBB540"/>
<path d="M55.7844 76.5088H61.9051L64.9655 88.7502H58.8448L55.7844 76.5088Z" fill="#EA9D2D"/>
</svg>
