<svg width="30" height="30" viewBox="0 0 30 30" fill="none" xmlns="http://www.w3.org/2000/svg">
<g clip-path="url(#clip0_3523_8560)">
<path fill-rule="evenodd" clip-rule="evenodd" d="M15 0C6.72656 0 0 6.72656 0 15C0 23.2734 6.72656 30 15 30C23.2734 30 30 23.2734 30 15C30 6.72656 23.2734 0 15 0Z" fill="#4BAE4F"/>
<path d="M22.4307 11.4444C22.8914 10.9837 22.8916 10.2283 22.4314 9.7673C21.9703 9.29959 21.2133 9.29957 20.7522 9.76725C20.752 9.7675 20.7517 9.76775 20.7515 9.768L12.8027 17.7168L9.24709 14.1611C8.78618 13.7002 8.03023 13.7002 7.56932 14.1611C7.1084 14.622 7.1084 15.378 7.56932 15.8389L11.9638 20.2334C12.1935 20.4631 12.4978 20.582 12.8027 20.582C13.1077 20.582 13.412 20.4631 13.6416 20.2334L22.4307 11.4444Z" fill="white" stroke="white" stroke-width="0.5"/>
</g>
<defs>
<clipPath id="clip0_3523_8560">
<rect width="30" height="30" fill="white"/>
</clipPath>
</defs>
</svg>
