<svg width="86" height="86" viewBox="0 0 86 86" fill="none" xmlns="http://www.w3.org/2000/svg">
<path fill-rule="evenodd" clip-rule="evenodd" d="M43 0C19.2894 0 0 19.2895 0 43C0 66.7105 19.2895 86 43 86C66.7105 86 86 66.7105 86 43C86 19.2895 66.7105 0 43 0ZM43 68.1953C29.1071 68.1953 17.8047 56.8929 17.8047 43C17.8047 29.1071 29.1071 17.8047 43 17.8047C56.8929 17.8047 68.1953 29.1071 68.1953 43C68.1953 56.8929 56.8929 68.1953 43 68.1953ZM52.8352 36.1301C52.9673 36.2618 53.0721 36.4184 53.1436 36.5907C53.2151 36.763 53.2519 36.9477 53.2519 37.1343C53.2519 37.3208 53.2151 37.5056 53.1436 37.6779C53.0721 37.8502 52.9673 38.0067 52.8352 38.1385L41.1036 49.8699C40.8373 50.1358 40.4764 50.2852 40.1 50.2852C39.7237 50.2852 39.3627 50.1358 39.0964 49.8699L33.1656 43.9386C33.0317 43.8073 32.9251 43.6508 32.852 43.4781C32.7789 43.3054 32.7408 43.12 32.7398 42.9325C32.7388 42.7449 32.775 42.5591 32.8462 42.3856C32.9175 42.2122 33.0224 42.0545 33.1549 41.9218C33.2874 41.7892 33.4449 41.684 33.6182 41.6126C33.7916 41.5411 33.9774 41.5047 34.1649 41.5054C34.3525 41.5062 34.538 41.5441 34.7108 41.6169C34.8836 41.6898 35.0402 41.7961 35.1716 41.9299L40.0993 46.8589L50.8289 36.1301C51.095 35.8642 51.4558 35.7149 51.8321 35.7149C52.2083 35.7149 52.5691 35.8642 52.8352 36.1301Z" fill="#5FD068"/>
</svg>
