<svg width="140" height="183" viewBox="0 0 140 183" fill="none" xmlns="http://www.w3.org/2000/svg">
<circle cx="74.5" cy="54.5" r="54.5" fill="#FFF4D0" fill-opacity="0.5"/>
<g clip-path="url(#clip0_3523_8342)">
<path d="M84.2653 26.7656H75.9285C75.2521 25.599 73.9894 24.8127 72.5466 24.8127H60.632C59.7246 20.3607 55.7783 17 51.0623 17C46.3464 17 42.4001 20.3607 41.4929 24.8127H29.5781C28.1353 24.8127 26.8726 25.599 26.1962 26.7656H17.8594C14.6285 26.7656 12 29.3941 12 32.6249V111.141C12 114.371 14.6285 117 17.8594 117H84.2653C87.4962 117 90.1247 114.371 90.1247 111.141V32.6249C90.1247 29.3941 87.4962 26.7656 84.2653 26.7656ZM43.2497 28.7189C44.3282 28.7189 45.2028 27.8443 45.2028 26.7658C45.2028 23.5347 47.8313 20.9062 51.0623 20.9062C54.2934 20.9062 56.9221 23.5347 56.9221 26.7658C56.9221 27.8443 57.7967 28.7189 58.8752 28.7189H72.5466V36.5312H29.5781L29.5777 28.7189H43.2497ZM86.2185 111.141C86.2185 112.218 85.3423 113.094 84.2653 113.094H17.8594C16.7824 113.094 15.9062 112.218 15.9062 111.141V32.6249C15.9062 31.548 16.7824 30.6718 17.8594 30.6718H25.6718V34.5781H21.7658C20.6873 34.5781 19.8127 35.4527 19.8127 36.5312V107.234C19.8127 108.313 20.6873 109.187 21.7658 109.187H42.2727C43.3512 109.187 44.2258 108.313 44.2258 107.234C44.2258 106.156 43.3512 105.281 42.2727 105.281H23.7189V38.4843H26.196C26.8724 39.6511 28.1351 40.4374 29.5781 40.4374H72.5466C73.9896 40.4374 75.2523 39.6511 75.9287 38.4843H78.406V105.281H59.8508C58.7723 105.281 57.8977 106.156 57.8977 107.234C57.8977 108.313 58.7723 109.187 59.8508 109.187H80.3591C81.4376 109.187 82.3122 108.313 82.3122 107.234V36.5312C82.3122 35.4527 81.4376 34.5781 80.3591 34.5781H76.4529V30.6718H84.2653C85.3423 30.6718 86.2185 31.548 86.2185 32.6249V111.141Z" fill="#DFDFDF"/>
<path d="M51.0631 28.7192C52.1416 28.7192 53.0162 27.8446 53.0162 26.7661C53.0162 25.6876 52.1416 24.813 51.0631 24.813H51.0616C49.983 24.813 49.1092 25.6876 49.1092 26.7661C49.1092 27.8446 49.9844 28.7192 51.0631 28.7192Z" fill="#DFDFDF"/>
<path d="M103.786 38.2621C103.455 37.6004 102.779 37.1826 102.039 37.1826H96.1796C95.1011 37.1826 94.2265 38.0572 94.2265 39.1357C94.2265 40.2142 95.1011 41.0889 96.1796 41.0889H98.1327L94.6171 45.7763C94.1733 46.3681 94.1017 47.1599 94.4327 47.8218C94.7636 48.4836 95.4397 48.9013 96.1796 48.9013H102.039C103.117 48.9013 103.992 48.0267 103.992 46.9482C103.992 45.8697 103.117 44.9951 102.039 44.9951H100.086L103.601 40.3076C104.045 39.7156 104.117 38.924 103.786 38.2621Z" fill="#DFDFDF"/>
<path d="M110.047 27.4166H106.141L111.609 20.125C112.053 19.5332 112.125 18.7414 111.794 18.0795C111.463 17.4178 110.787 17 110.047 17H102.234C101.156 17 100.281 17.8746 100.281 18.9531C100.281 20.0316 101.156 20.9062 102.234 20.9062H106.141L100.672 28.1978C100.228 28.7896 100.156 29.5814 100.488 30.2431C100.818 30.905 101.495 31.3228 102.234 31.3228H110.047C111.125 31.3228 112 30.4482 112 29.3697C112 28.2912 111.125 27.4166 110.047 27.4166Z" fill="#DFDFDF"/>
<path d="M41.4575 63.9347C40.7262 64.6659 39.754 65.0688 38.7198 65.0688C37.6858 65.0688 36.7138 64.6661 35.9823 63.9347C35.2194 63.1722 33.9831 63.1722 33.22 63.9347C32.4573 64.6974 32.4573 65.9341 33.22 66.697C34.6892 68.1659 36.6423 68.9751 38.7196 68.9751C40.7971 68.9751 42.7503 68.1659 44.2194 66.697C44.9821 65.9343 44.9821 64.6976 44.2194 63.9347C43.4569 63.1722 42.2204 63.1722 41.4575 63.9347Z" fill="#DFDFDF"/>
<path d="M63.4049 68.9751C65.4824 68.9751 67.4355 68.1659 68.9046 66.697C69.6673 65.9343 69.6673 64.6976 68.9046 63.9347C68.1418 63.1722 66.9054 63.1722 66.1424 63.9347C65.4111 64.6659 64.4388 65.0688 63.4047 65.0688C62.3705 65.0688 61.3984 64.6661 60.667 63.9347C59.9041 63.1722 58.6678 63.1722 57.9047 63.9347C57.142 64.6974 57.142 65.9341 57.9047 66.697C59.3744 68.1659 61.3275 68.9751 63.4049 68.9751Z" fill="#DFDFDF"/>
<path d="M53.8211 76.4971H48.3038C47.2253 76.4971 46.3506 77.3717 46.3506 78.4502C46.3506 79.5287 47.2253 80.4033 48.3038 80.4033H53.8211C54.8996 80.4033 55.7742 79.5287 55.7742 78.4502C55.7742 77.3717 54.8996 76.4971 53.8211 76.4971Z" fill="#DFDFDF"/>
<path d="M51.0625 105.281H51.061C49.9825 105.281 49.1086 106.156 49.1086 107.234C49.1086 108.313 49.9838 109.187 51.0625 109.187C52.1413 109.187 53.0157 108.313 53.0157 107.234C53.0157 106.156 52.1411 105.281 51.0625 105.281Z" fill="#DFDFDF"/>
</g>
<line x1="53" y1="179" x2="137" y2="179" stroke="#F5DF99" stroke-width="6" stroke-linecap="round"/>
<path d="M14.712 161.2C15.032 161.2 15.288 161.312 15.48 161.536C15.688 161.744 15.792 162.008 15.792 162.328V176.776C15.792 177.128 15.672 177.424 15.432 177.664C15.208 177.888 14.92 178 14.568 178C14.408 178 14.232 177.968 14.04 177.904C13.864 177.84 13.728 177.752 13.632 177.64L3.76797 164.848L4.31997 164.536V176.896C4.31997 177.2 4.21597 177.464 4.00797 177.688C3.79997 177.896 3.53597 178 3.21597 178C2.87997 178 2.60797 177.896 2.39997 177.688C2.20797 177.464 2.11197 177.2 2.11197 176.896V162.424C2.11197 162.056 2.23197 161.76 2.47197 161.536C2.71197 161.312 2.99997 161.2 3.33597 161.2C3.51197 161.2 3.69597 161.24 3.88797 161.32C4.09597 161.384 4.24797 161.488 4.34397 161.632L13.968 174.16L13.608 174.496V162.328C13.608 162.008 13.712 161.744 13.92 161.536C14.128 161.312 14.392 161.2 14.712 161.2ZM31.5455 171.688C31.5455 172.968 31.2655 174.104 30.7055 175.096C30.1455 176.072 29.3855 176.84 28.4255 177.4C27.4655 177.96 26.3855 178.24 25.1855 178.24C23.9855 178.24 22.9055 177.96 21.9455 177.4C20.9855 176.84 20.2175 176.072 19.6415 175.096C19.0815 174.104 18.8015 172.968 18.8015 171.688C18.8015 170.392 19.0815 169.256 19.6415 168.28C20.2175 167.288 20.9855 166.512 21.9455 165.952C22.9055 165.376 23.9855 165.088 25.1855 165.088C26.3855 165.088 27.4655 165.376 28.4255 165.952C29.3855 166.512 30.1455 167.288 30.7055 168.28C31.2655 169.256 31.5455 170.392 31.5455 171.688ZM29.1455 171.688C29.1455 170.808 28.9695 170.048 28.6175 169.408C28.2655 168.752 27.7855 168.24 27.1775 167.872C26.5855 167.488 25.9215 167.296 25.1855 167.296C24.4495 167.296 23.7775 167.488 23.1695 167.872C22.5615 168.24 22.0815 168.752 21.7295 169.408C21.3775 170.048 21.2015 170.808 21.2015 171.688C21.2015 172.536 21.3775 173.288 21.7295 173.944C22.0815 174.6 22.5615 175.112 23.1695 175.48C23.7775 175.848 24.4495 176.032 25.1855 176.032C25.9215 176.032 26.5855 175.848 27.1775 175.48C27.7855 175.112 28.2655 174.6 28.6175 173.944C28.9695 173.288 29.1455 172.536 29.1455 171.688ZM42.5017 161.2C42.8217 161.2 43.1017 161.32 43.3417 161.56C43.5977 161.784 43.7257 162.072 43.7257 162.424V176.776C43.7097 177.128 43.5737 177.424 43.3177 177.664C43.0777 177.888 42.7897 178 42.4537 178C42.0857 178 41.7817 177.888 41.5417 177.664C41.3177 177.424 41.2057 177.128 41.2057 176.776V162.424C41.2057 162.072 41.3257 161.784 41.5657 161.56C41.8057 161.32 42.1177 161.2 42.5017 161.2ZM53.3257 161.2C53.7097 161.2 54.0137 161.32 54.2377 161.56C54.4617 161.784 54.5737 162.072 54.5737 162.424V176.776C54.5737 177.128 54.4537 177.424 54.2137 177.664C53.9897 177.888 53.6857 178 53.3017 178C52.9657 178 52.6777 177.888 52.4377 177.664C52.1977 177.424 52.0777 177.128 52.0777 176.776V162.424C52.0777 162.072 52.1977 161.784 52.4377 161.56C52.6937 161.32 52.9897 161.2 53.3257 161.2ZM42.4057 168.352H53.3497L53.3257 170.656H42.3817L42.4057 168.352ZM60.4477 176.776C60.4477 177.128 60.3357 177.424 60.1117 177.664C59.8877 177.888 59.5997 178 59.2477 178C58.9117 178 58.6237 177.888 58.3837 177.664C58.1597 177.424 58.0477 177.128 58.0477 176.776V166.504C58.0477 166.152 58.1597 165.864 58.3837 165.64C58.6237 165.4 58.9117 165.28 59.2477 165.28C59.5997 165.28 59.8877 165.4 60.1117 165.64C60.3357 165.864 60.4477 166.152 60.4477 166.504V176.776ZM59.2237 163.696C58.7597 163.696 58.4237 163.616 58.2157 163.456C58.0077 163.28 57.9037 162.992 57.9037 162.592V162.208C57.9037 161.808 58.0157 161.528 58.2397 161.368C58.4637 161.208 58.7997 161.128 59.2477 161.128C59.7277 161.128 60.0717 161.216 60.2797 161.392C60.4877 161.552 60.5917 161.824 60.5917 162.208V162.592C60.5917 163.008 60.4797 163.296 60.2557 163.456C60.0477 163.616 59.7037 163.696 59.2237 163.696ZM62.9321 176.032C62.7881 175.808 62.7241 175.552 62.7401 175.264C62.7561 174.96 62.9241 174.704 63.2441 174.496C63.4681 174.352 63.7001 174.296 63.9401 174.328C64.1961 174.344 64.4361 174.464 64.6601 174.688C65.1081 175.184 65.6041 175.576 66.1481 175.864C66.7081 176.152 67.3801 176.296 68.1641 176.296C68.4841 176.28 68.8121 176.232 69.1481 176.152C69.4841 176.056 69.7721 175.896 70.0121 175.672C70.2521 175.432 70.3721 175.088 70.3721 174.64C70.3721 174.24 70.2441 173.92 69.9881 173.68C69.7321 173.44 69.3961 173.248 68.9801 173.104C68.5641 172.944 68.1161 172.8 67.6361 172.672C67.1241 172.528 66.6041 172.368 66.0761 172.192C65.5641 172.016 65.1001 171.792 64.6841 171.52C64.2681 171.232 63.9241 170.864 63.6521 170.416C63.3961 169.968 63.2681 169.416 63.2681 168.76C63.2681 168.008 63.4761 167.36 63.8921 166.816C64.3241 166.272 64.8761 165.848 65.5481 165.544C66.2361 165.24 66.9801 165.088 67.7801 165.088C68.2441 165.088 68.7321 165.152 69.2441 165.28C69.7561 165.392 70.2521 165.576 70.7321 165.832C71.2121 166.088 71.6281 166.424 71.9801 166.84C72.1401 167.048 72.2281 167.296 72.2441 167.584C72.2761 167.872 72.1481 168.128 71.8601 168.352C71.6681 168.512 71.4361 168.584 71.1641 168.568C70.8921 168.552 70.6681 168.464 70.4921 168.304C70.1881 167.92 69.7961 167.624 69.3161 167.416C68.8361 167.192 68.2921 167.08 67.6841 167.08C67.3801 167.08 67.0601 167.128 66.7241 167.224C66.4041 167.304 66.1321 167.456 65.9081 167.68C65.6841 167.904 65.5721 168.232 65.5721 168.664C65.5721 169.064 65.7001 169.384 65.9561 169.624C66.2281 169.864 66.5801 170.064 67.0121 170.224C67.4441 170.384 67.9161 170.528 68.4281 170.656C68.9241 170.784 69.4121 170.936 69.8921 171.112C70.3881 171.288 70.8281 171.52 71.2121 171.808C71.6121 172.08 71.9321 172.44 72.1721 172.888C72.4281 173.32 72.5561 173.872 72.5561 174.544C72.5561 175.328 72.3241 176 71.8601 176.56C71.4121 177.104 70.8361 177.52 70.1321 177.808C69.4441 178.096 68.7161 178.24 67.9481 178.24C67.0361 178.24 66.1241 178.08 65.2121 177.76C64.3161 177.424 63.5561 176.848 62.9321 176.032ZM74.969 165.52H80.609C80.929 165.52 81.193 165.632 81.401 165.856C81.625 166.064 81.737 166.328 81.737 166.648C81.737 166.952 81.625 167.208 81.401 167.416C81.193 167.624 80.929 167.728 80.609 167.728H74.969C74.649 167.728 74.377 167.624 74.153 167.416C73.945 167.192 73.841 166.928 73.841 166.624C73.841 166.304 73.945 166.04 74.153 165.832C74.377 165.624 74.649 165.52 74.969 165.52ZM77.489 162.4C77.841 162.4 78.129 162.52 78.353 162.76C78.577 162.984 78.689 163.272 78.689 163.624V174.76C78.689 175.048 78.737 175.28 78.833 175.456C78.929 175.632 79.057 175.752 79.217 175.816C79.393 175.88 79.569 175.912 79.745 175.912C79.921 175.912 80.073 175.88 80.201 175.816C80.345 175.752 80.513 175.72 80.705 175.72C80.897 175.72 81.073 175.808 81.233 175.984C81.393 176.16 81.473 176.4 81.473 176.704C81.473 177.088 81.265 177.4 80.849 177.64C80.433 177.88 79.985 178 79.505 178C79.233 178 78.913 177.976 78.545 177.928C78.177 177.88 77.817 177.76 77.465 177.568C77.129 177.376 76.849 177.072 76.625 176.656C76.401 176.224 76.289 175.624 76.289 174.856V163.624C76.289 163.272 76.401 162.984 76.625 162.76C76.865 162.52 77.153 162.4 77.489 162.4ZM96.3737 171.688C96.3737 172.968 96.0937 174.104 95.5337 175.096C94.9737 176.072 94.2137 176.84 93.2537 177.4C92.2937 177.96 91.2137 178.24 90.0137 178.24C88.8137 178.24 87.7337 177.96 86.7737 177.4C85.8137 176.84 85.0457 176.072 84.4697 175.096C83.9097 174.104 83.6297 172.968 83.6297 171.688C83.6297 170.392 83.9097 169.256 84.4697 168.28C85.0457 167.288 85.8137 166.512 86.7737 165.952C87.7337 165.376 88.8137 165.088 90.0137 165.088C91.2137 165.088 92.2937 165.376 93.2537 165.952C94.2137 166.512 94.9737 167.288 95.5337 168.28C96.0937 169.256 96.3737 170.392 96.3737 171.688ZM93.9737 171.688C93.9737 170.808 93.7977 170.048 93.4457 169.408C93.0937 168.752 92.6137 168.24 92.0057 167.872C91.4137 167.488 90.7497 167.296 90.0137 167.296C89.2777 167.296 88.6057 167.488 87.9977 167.872C87.3897 168.24 86.9097 168.752 86.5577 169.408C86.2057 170.048 86.0297 170.808 86.0297 171.688C86.0297 172.536 86.2057 173.288 86.5577 173.944C86.9097 174.6 87.3897 175.112 87.9977 175.48C88.6057 175.848 89.2777 176.032 90.0137 176.032C90.7497 176.032 91.4137 175.848 92.0057 175.48C92.6137 175.112 93.0937 174.6 93.4457 173.944C93.7977 173.288 93.9737 172.536 93.9737 171.688ZM100.29 178C99.9382 178 99.6502 177.888 99.4262 177.664C99.2022 177.424 99.0902 177.128 99.0902 176.776V166.6C99.0902 166.248 99.2022 165.96 99.4262 165.736C99.6502 165.496 99.9382 165.376 100.29 165.376C100.626 165.376 100.906 165.496 101.13 165.736C101.37 165.96 101.49 166.248 101.49 166.6V169.288L101.25 168.256C101.378 167.808 101.57 167.392 101.826 167.008C102.098 166.624 102.418 166.288 102.786 166C103.154 165.712 103.562 165.488 104.01 165.328C104.474 165.168 104.954 165.088 105.45 165.088C105.866 165.088 106.226 165.2 106.53 165.424C106.834 165.648 106.986 165.928 106.986 166.264C106.986 166.696 106.874 167.016 106.65 167.224C106.426 167.416 106.178 167.512 105.906 167.512C105.666 167.512 105.434 167.464 105.21 167.368C104.986 167.256 104.722 167.2 104.418 167.2C104.082 167.2 103.738 167.288 103.386 167.464C103.034 167.64 102.714 167.904 102.426 168.256C102.138 168.592 101.906 168.992 101.73 169.456C101.57 169.92 101.49 170.44 101.49 171.016V176.776C101.49 177.128 101.37 177.424 101.13 177.664C100.906 177.888 100.626 178 100.29 178ZM118.505 165.28C118.857 165.28 119.145 165.4 119.369 165.64C119.593 165.864 119.705 166.152 119.705 166.504V176.824C119.705 178.232 119.433 179.376 118.889 180.256C118.361 181.136 117.641 181.776 116.729 182.176C115.833 182.592 114.817 182.8 113.681 182.8C113.105 182.8 112.529 182.744 111.953 182.632C111.377 182.536 110.905 182.392 110.537 182.2C110.153 182.024 109.881 181.808 109.721 181.552C109.561 181.296 109.537 181.016 109.649 180.712C109.761 180.328 109.953 180.064 110.225 179.92C110.497 179.792 110.777 179.784 111.065 179.896C111.337 180.008 111.697 180.152 112.145 180.328C112.593 180.504 113.105 180.592 113.681 180.592C114.465 180.592 115.129 180.464 115.673 180.208C116.217 179.952 116.625 179.552 116.897 179.008C117.185 178.464 117.329 177.76 117.329 176.896V175.24L117.713 175.816C117.457 176.344 117.121 176.784 116.705 177.136C116.289 177.488 115.793 177.76 115.217 177.952C114.657 178.144 114.033 178.24 113.345 178.24C112.465 178.24 111.705 178.048 111.065 177.664C110.441 177.264 109.961 176.72 109.625 176.032C109.289 175.328 109.121 174.528 109.121 173.632V166.504C109.121 166.152 109.233 165.864 109.457 165.64C109.681 165.4 109.969 165.28 110.321 165.28C110.657 165.28 110.937 165.4 111.161 165.64C111.401 165.864 111.521 166.152 111.521 166.504V172.984C111.521 174.04 111.753 174.816 112.217 175.312C112.681 175.792 113.369 176.032 114.281 176.032C114.889 176.032 115.417 175.904 115.865 175.648C116.313 175.392 116.665 175.04 116.921 174.592C117.177 174.128 117.305 173.592 117.305 172.984V166.504C117.305 166.152 117.417 165.864 117.641 165.64C117.881 165.4 118.169 165.28 118.505 165.28ZM130.946 172.888C130.482 172.888 130.234 172.632 130.202 172.12L129.65 162.688C129.618 162.272 129.722 161.92 129.962 161.632C130.202 161.344 130.53 161.2 130.946 161.2C131.346 161.2 131.666 161.344 131.906 161.632C132.162 161.92 132.266 162.272 132.218 162.688L131.69 172.12C131.658 172.632 131.41 172.888 130.946 172.888ZM130.826 178C130.426 178 130.114 177.888 129.89 177.664C129.682 177.44 129.578 177.128 129.578 176.728V176.296C129.578 175.88 129.682 175.568 129.89 175.36C130.114 175.136 130.426 175.024 130.826 175.024H131.066C131.482 175.024 131.794 175.136 132.002 175.36C132.21 175.568 132.314 175.88 132.314 176.296V176.728C132.314 177.128 132.21 177.44 132.002 177.664C131.794 177.888 131.482 178 131.066 178H130.826Z" fill="#161616"/>
<defs>
<clipPath id="clip0_3523_8342">
<rect width="100" height="100" fill="white" transform="translate(12 17)"/>
</clipPath>
</defs>
</svg>
