<svg width="24" height="25" viewBox="0 0 24 25" fill="none" xmlns="http://www.w3.org/2000/svg">
<path fill-rule="evenodd" clip-rule="evenodd" d="M14.4553 2.6787C13.6943 2.37272 12.865 2.20508 12 2.20508C8.64392 2.20508 5.82455 4.72853 5.45393 8.06406L5.20213 10.3303L5.19608 10.3843C5.08325 11.3676 4.76321 12.3157 4.25708 13.1662L4.22913 13.2128L3.6511 14.1762L3.62695 14.2165C3.38543 14.6189 3.16661 14.9835 3.02086 15.293C2.87274 15.6075 2.71437 16.0336 2.7906 16.5168C2.86595 16.9943 3.11173 17.4284 3.48245 17.7387C3.85752 18.0527 4.3044 18.1361 4.65029 18.1709C4.99066 18.2052 5.41591 18.2051 5.8853 18.2051L5.9322 18.2051H18.0677L18.1146 18.2051C18.584 18.2051 19.0093 18.2052 19.3497 18.1709C19.6955 18.1361 20.1424 18.0527 20.5175 17.7387C20.8882 17.4284 21.134 16.9943 21.2093 16.5168C21.2856 16.0336 21.1272 15.6075 20.9791 15.293C20.8333 14.9835 20.6145 14.6189 20.373 14.2164L20.3488 14.1762L19.7708 13.2128L19.7429 13.1662C19.3641 12.5298 19.0896 11.8387 18.9281 11.1191C18.6274 11.1756 18.3171 11.2051 18 11.2051C17.616 11.2051 17.2422 11.1618 16.883 11.0799C17.0676 12.1765 17.4541 13.231 18.0242 14.189L18.0558 14.2418L18.6339 15.2052C18.9074 15.661 19.0722 15.9381 19.1697 16.1452C19.175 16.1565 19.1799 16.1671 19.1844 16.1771C19.1736 16.1784 19.1619 16.1797 19.1495 16.181C18.9217 16.2039 18.5993 16.2051 18.0677 16.2051H5.9322C5.40061 16.2051 5.07823 16.2039 4.85049 16.181C4.83804 16.1797 4.82639 16.1784 4.81553 16.1771C4.82001 16.1671 4.8249 16.1565 4.83024 16.1452C4.92776 15.9381 5.09258 15.661 5.36609 15.2052L5.94412 14.2418L5.97575 14.189C6.6265 13.0955 7.03797 11.8765 7.18304 10.6123L7.1899 10.5511L7.4417 8.28493C7.69977 5.96226 9.66301 4.20508 12 4.20508C12.463 4.20508 12.9113 4.27406 13.3347 4.40275C13.5866 3.75102 13.9712 3.1653 14.4553 2.6787ZM16.9821 4.48312C16.3942 4.8314 16 5.47221 16 6.20508C16 6.35011 16.0154 6.49153 16.0447 6.62779C16.1651 6.85268 16.2675 7.08912 16.3497 7.33529C16.7101 7.86055 17.3148 8.20508 18 8.20508C18.1918 8.20508 18.3774 8.17806 18.5531 8.12761L18.546 8.06407C18.3938 6.69382 17.8283 5.46063 16.9821 4.48312Z" fill="#161616"/>
<path fill-rule="evenodd" clip-rule="evenodd" d="M14.4553 2.6787C13.6943 2.37272 12.865 2.20508 12 2.20508C8.64392 2.20508 5.82455 4.72853 5.45393 8.06406L5.20213 10.3303L5.19608 10.3843C5.08325 11.3676 4.76321 12.3157 4.25708 13.1662L4.22913 13.2128L3.6511 14.1762L3.62695 14.2165C3.38543 14.6189 3.16661 14.9835 3.02086 15.293C2.87274 15.6075 2.71437 16.0336 2.7906 16.5168C2.86595 16.9943 3.11173 17.4284 3.48245 17.7387C3.85752 18.0527 4.3044 18.1361 4.65029 18.1709C4.99066 18.2052 5.41591 18.2051 5.8853 18.2051L5.9322 18.2051H18.0677L18.1146 18.2051C18.584 18.2051 19.0093 18.2052 19.3497 18.1709C19.6955 18.1361 20.1424 18.0527 20.5175 17.7387C20.8882 17.4284 21.134 16.9943 21.2093 16.5168C21.2856 16.0336 21.1272 15.6075 20.9791 15.293C20.8333 14.9835 20.6145 14.6189 20.373 14.2164L20.3488 14.1762L19.7708 13.2128L19.7429 13.1662C19.3641 12.5298 19.0896 11.8387 18.9281 11.1191C18.6274 11.1756 18.3171 11.2051 18 11.2051C17.616 11.2051 17.2422 11.1618 16.883 11.0799C17.0676 12.1765 17.4541 13.231 18.0242 14.189L18.0558 14.2418L18.6339 15.2052C18.9074 15.661 19.0722 15.9381 19.1697 16.1452C19.175 16.1565 19.1799 16.1671 19.1844 16.1771C19.1736 16.1784 19.1619 16.1797 19.1495 16.181C18.9217 16.2039 18.5993 16.2051 18.0677 16.2051H5.9322C5.40061 16.2051 5.07823 16.2039 4.85049 16.181C4.83804 16.1797 4.82639 16.1784 4.81553 16.1771C4.82001 16.1671 4.8249 16.1565 4.83024 16.1452C4.92776 15.9381 5.09258 15.661 5.36609 15.2052L5.94412 14.2418L5.97575 14.189C6.6265 13.0955 7.03797 11.8765 7.18304 10.6123L7.1899 10.5511L7.4417 8.28493C7.69977 5.96226 9.66301 4.20508 12 4.20508C12.463 4.20508 12.9113 4.27406 13.3347 4.40275C13.5866 3.75102 13.9712 3.1653 14.4553 2.6787ZM16.9821 4.48312C16.3942 4.8314 16 5.47221 16 6.20508C16 6.35011 16.0154 6.49153 16.0447 6.62779C16.1651 6.85268 16.2675 7.08912 16.3497 7.33529C16.7101 7.86055 17.3148 8.20508 18 8.20508C18.1918 8.20508 18.3774 8.17806 18.5531 8.12761L18.546 8.06407C18.3938 6.69382 17.8283 5.46063 16.9821 4.48312Z" fill="black" fill-opacity="0.2"/>
<path d="M9.10222 17.8698C9.27315 18.8266 9.64978 19.6721 10.1737 20.2752C10.6976 20.8782 11.3396 21.2051 12 21.2051C12.6604 21.2051 13.3024 20.8782 13.8263 20.2752C14.3502 19.6721 14.7269 18.8266 14.8978 17.8698" stroke="#161616" stroke-width="2" stroke-linecap="round"/>
<path d="M9.10222 17.8698C9.27315 18.8266 9.64978 19.6721 10.1737 20.2752C10.6976 20.8782 11.3396 21.2051 12 21.2051C12.6604 21.2051 13.3024 20.8782 13.8263 20.2752C14.3502 19.6721 14.7269 18.8266 14.8978 17.8698" stroke="black" stroke-opacity="0.2" stroke-width="2" stroke-linecap="round"/>
<circle cx="18" cy="6.20508" r="2.5" fill="#F5DF99" stroke="#F5DF99"/>
</svg>
