<svg width="28" height="28" viewBox="0 0 28 28" fill="none" xmlns="http://www.w3.org/2000/svg">
<path d="M23.8438 11.6562H2.28125C1.24572 11.6562 0.40625 12.4957 0.40625 13.5312V25.7188C0.40625 26.7543 1.24572 27.5938 2.28125 27.5938H23.8438C24.8793 27.5938 25.7188 26.7543 25.7188 25.7188V13.5312C25.7188 12.4957 24.8793 11.6562 23.8438 11.6562Z" fill="#F9D53D"/>
<path d="M6.03125 24.7812C5.53397 24.7812 5.05706 24.5837 4.70542 24.2321C4.35379 23.8804 4.15625 23.4035 4.15625 22.9062V11.6562H2.28125C1.78397 11.6562 1.30706 11.8538 0.955425 12.2054C0.603794 12.5571 0.40625 13.034 0.40625 13.5312V25.7188C0.40625 26.216 0.603794 26.6929 0.955425 27.0446C1.30706 27.3962 1.78397 27.5938 2.28125 27.5938H23.8438C24.341 27.5938 24.8179 27.3962 25.1696 27.0446C25.5212 26.6929 25.7188 26.216 25.7188 25.7188V24.7812H6.03125Z" fill="#F9D53D"/>
<path d="M13.0625 23.4031C12.565 23.3971 12.0824 23.2329 11.6844 22.9344L2.47344 16.2547C2.42358 16.2184 2.38136 16.1726 2.3492 16.12C2.31703 16.0673 2.29554 16.0089 2.28597 15.9479C2.27639 15.887 2.27891 15.8248 2.29339 15.7648C2.30786 15.7048 2.334 15.6483 2.37032 15.5984C2.40664 15.5486 2.45242 15.5064 2.50506 15.4742C2.55769 15.442 2.61615 15.4205 2.67709 15.411C2.73803 15.4014 2.80025 15.4039 2.86022 15.4184C2.92018 15.4329 2.97671 15.459 3.02657 15.4953L12.2375 22.1938C12.4775 22.3676 12.7662 22.4612 13.0625 22.4612C13.3588 22.4612 13.6475 22.3676 13.8875 22.1938L23.0984 15.4953C23.1991 15.422 23.3249 15.3916 23.4479 15.411C23.571 15.4303 23.6813 15.4977 23.7547 15.5984C23.828 15.6991 23.8584 15.8249 23.839 15.9479C23.8197 16.071 23.7523 16.1813 23.6516 16.2547L14.4406 22.9531C14.0404 23.245 13.5579 23.4025 13.0625 23.4031Z" fill="#F7931E"/>
<path d="M19.1282 13.2498L20.872 15.406L22.522 13.3576C24.0723 12.9947 25.4378 12.0806 26.364 10.7856C27.2903 9.49059 27.7142 7.90299 27.5567 6.31862C27.3992 4.73424 26.6711 3.26116 25.508 2.17384C24.3449 1.08652 22.8261 0.45914 21.2348 0.408585C19.6434 0.35803 18.0879 0.887753 16.8581 1.89905C15.6283 2.91035 14.8082 4.33425 14.5504 5.90543C14.2927 7.47662 14.615 9.08792 15.4572 10.4391C16.2994 11.7903 17.6041 12.7892 19.1282 13.2498Z" fill="#EA4450"/>
<path d="M21.9405 12.3124C20.7311 11.9437 19.6539 11.2335 18.8385 10.2671C18.0232 9.30077 17.5043 8.11945 17.3444 6.86523C17.1844 5.61101 17.3902 4.33729 17.937 3.19724C18.4838 2.0572 19.3482 1.09938 20.4264 0.438965C18.9132 0.581424 17.4963 1.24473 16.4177 2.31564C15.3391 3.38655 14.6657 4.79865 14.5125 6.31083C14.3592 7.82302 14.7356 9.34151 15.5774 10.6071C16.4191 11.8726 17.6741 12.8067 19.128 13.2499L20.8717 15.4062L22.5217 13.3577L22.7374 13.2968L21.9405 12.3124Z" fill="#EA4450"/>
<path d="M21.9688 3.21875C21.9688 2.70098 21.549 2.28125 21.0312 2.28125C20.5135 2.28125 20.0938 2.70098 20.0938 3.21875V6.96875C20.0938 7.48652 20.5135 7.90625 21.0312 7.90625C21.549 7.90625 21.9688 7.48652 21.9688 6.96875V3.21875Z" fill="white"/>
<path d="M21.0312 11.6562C21.549 11.6562 21.9688 11.2365 21.9688 10.7188C21.9688 10.201 21.549 9.78125 21.0312 9.78125C20.5135 9.78125 20.0938 10.201 20.0938 10.7188C20.0938 11.2365 20.5135 11.6562 21.0312 11.6562Z" fill="white"/>
</svg>
