<svg width="30" height="31" viewBox="0 0 30 31" fill="none" xmlns="http://www.w3.org/2000/svg">
<path d="M21.3281 19.25C22.2342 19.25 22.9688 18.5155 22.9688 17.6094C22.9688 16.7033 22.2342 15.9688 21.3281 15.9688C20.422 15.9688 19.6875 16.7033 19.6875 17.6094C19.6875 18.5155 20.422 19.25 21.3281 19.25Z" fill="white"/>
<path d="M24.8438 8.04219V6.59375C24.8438 5.85508 24.5533 5.14603 24.035 4.61978C23.5166 4.09353 22.812 3.79233 22.0734 3.78125H7.41562C3.28125 3.78125 2.86406 7.17031 2.8125 8.88125V8.9375V23.9375C2.8125 24.6834 3.10882 25.3988 3.63626 25.9262C4.16371 26.4537 4.87908 26.75 5.625 26.75H24.375C25.1209 26.75 25.8363 26.4537 26.3637 25.9262C26.8912 25.3988 27.1875 24.6834 27.1875 23.9375V10.8125C27.1868 10.1483 26.9511 9.50584 26.5222 8.9988C26.0932 8.49176 25.4986 8.15288 24.8438 8.04219ZM7.41562 5.65625H22.0734C22.3147 5.66712 22.5424 5.77067 22.7092 5.94532C22.876 6.11997 22.969 6.35225 22.9688 6.59375V8H4.77188C5.01094 6.29844 5.78906 5.65625 7.41562 5.65625ZM25.3125 23.9375C25.3125 24.1861 25.2137 24.4246 25.0379 24.6004C24.8621 24.7762 24.6236 24.875 24.375 24.875H5.625C5.37636 24.875 5.1379 24.7762 4.96209 24.6004C4.78627 24.4246 4.6875 24.1861 4.6875 23.9375V9.875H24.375C24.6236 9.875 24.8621 9.97377 25.0379 10.1496C25.2137 10.3254 25.3125 10.5639 25.3125 10.8125V23.9375Z" fill="white"/>
</svg>
